<?xml version="1.0" encoding="iso-8859-1"?>
<!-- Generator: Adobe Illustrator 19.0.0, SVG Export Plug-In . SVG Version: 6.00 Build 0)  -->
<svg version="1.1" id="Capa_1" xmlns="http://www.w3.org/2000/svg" xmlns:xlink="http://www.w3.org/1999/xlink" x="0px" y="0px"
	 viewBox="0 0 496.485 496.485" style="enable-background:new 0 0 496.485 496.485;" xml:space="preserve">
<circle style="fill:#F16051;" cx="248.242" cy="248.242" r="248.242"/>
<path style="fill:#FFFFFF;" d="M248.242,451.491c-112.485,0-203.248-90.764-203.248-203.249S135.758,44.994,248.242,44.994
	s203.249,91.539,203.249,203.248C451.491,360.727,360.727,451.491,248.242,451.491z"/>
<path style="fill:#193651;" d="M248.242,459.249c-116.364,0-211.006-94.642-211.006-211.006S131.879,37.236,248.242,37.236
	s211.006,94.642,211.006,211.006S364.606,459.249,248.242,459.249z M248.242,52.752c-107.83,0-195.491,87.661-195.491,195.491
	s87.661,195.491,195.491,195.491s195.491-87.661,195.491-195.491S356.073,52.752,248.242,52.752z"/>
<path style="fill:#F16051;" d="M248.242,408.824c-88.436,0-160.582-72.145-160.582-160.582S159.806,87.661,248.242,87.661
	s160.582,72.145,160.582,160.582S336.679,408.824,248.242,408.824z"/>
<path style="fill:#FFFFFF;" d="M262.206,283.152h-28.703v-15.515c0-6.982,0.776-11.636,2.327-14.739
	c1.552-3.103,5.43-7.758,10.861-13.188l18.618-18.618c3.879-3.879,5.43-9.309,5.43-15.515s-2.327-11.636-6.206-15.515
	c-3.879-3.879-9.309-6.206-15.515-6.206s-11.636,2.327-16.291,6.206c-4.655,3.879-6.982,9.309-7.758,15.515h-30.255
	c1.552-14.739,7.758-26.376,17.842-34.909c10.085-8.533,22.497-12.412,37.236-12.412c14.739,0,27.152,3.879,36.461,12.412
	c9.309,8.533,13.964,19.394,13.964,34.133c0,10.085-3.103,18.618-8.533,25.6c-3.103,3.879-5.43,6.982-6.982,8.533
	c-1.552,1.552-3.879,3.879-6.982,6.206c-3.103,2.327-5.43,4.655-6.982,6.982c-2.327,2.327-3.879,3.879-4.655,4.655
	c-3.103,3.879-4.655,9.309-4.655,15.515v10.861H262.206z M249.018,339.006c-5.43,0-10.085-1.552-13.964-5.43
	s-5.43-7.758-5.43-13.188s1.552-9.309,5.43-13.188c3.879-3.879,8.533-5.43,13.964-5.43c5.43,0,10.085,1.552,13.964,5.43
	c3.879,3.879,5.43,7.758,5.43,13.188s-1.552,9.309-5.43,13.188C258.327,337.455,253.673,339.006,249.018,339.006z"/>
<rect x="341.333" y="198.594" style="fill:#193651;" width="15.515" height="15.515"/>
<g>
	<rect x="341.333" y="240.485" style="fill:#193651;" width="15.515" height="15.515"/>
	<rect x="341.333" y="282.376" style="fill:#193651;" width="15.515" height="15.515"/>
	<rect x="139.636" y="198.594" style="fill:#193651;" width="15.515" height="15.515"/>
</g>
<g>
	<rect x="139.636" y="240.485" style="fill:#193651;" width="15.515" height="15.515"/>
	<rect x="139.636" y="282.376" style="fill:#193651;" width="15.515" height="15.515"/>
</g>
<g>
</g>
<g>
</g>
<g>
</g>
<g>
</g>
<g>
</g>
<g>
</g>
<g>
</g>
<g>
</g>
<g>
</g>
<g>
</g>
<g>
</g>
<g>
</g>
<g>
</g>
<g>
</g>
<g>
</g>
</svg>
