<svg xmlns="http://www.w3.org/2000/svg" width="40" height="40" viewBox="0 0 40 40">
    <g fill="none" fill-rule="evenodd">
        <path d="M0 0h40v40H0z"/>
        <g fill-rule="nonzero">
            <path fill="#FAF0AF" d="M38.125 15.662a.59.59 0 0 0-.5-.406l-12.5-1.152-4.6-11.4a.587.587 0 0 0-.54-.363.587.587 0 0 0-.541.363l-4.6 11.4L2.313 15.25a.59.59 0 0 0-.502.41.6.6 0 0 0 .17.629l9.431 8.36-2.9 12.033a.6.6 0 0 0 .234.606c.19.137.441.148.641.027l10.563-6.624 10.563 6.624c.2.12.451.11.64-.027a.6.6 0 0 0 .235-.606l-2.9-12.033 9.43-8.36a.6.6 0 0 0 .207-.627z"/>
            <path fill="#F5E295" d="M38.125 15.662a.59.59 0 0 0-.5-.406l-12.5-1.152-4.6-11.4A.582.582 0 0 0 20 2.31v28.392l10.512 6.593c.2.12.452.11.642-.027a.6.6 0 0 0 .233-.606l-2.9-12.033 9.432-8.36a.6.6 0 0 0 .206-.608z"/>
            <path fill="#425080" d="M39.375 15.37a.627.627 0 0 0-.538-.437L25.45 13.705 20.531 1.488a.625.625 0 0 0-.578-.393.625.625 0 0 0-.578.393l-4.919 12.217L1.1 14.933a.627.627 0 0 0-.54.435.639.639 0 0 0 .184.674l10.081 8.93L7.7 37.803a.638.638 0 0 0 .239.665.618.618 0 0 0 .698.025L19.95 31.4l11.3 7.1a.618.618 0 0 0 .698-.025.638.638 0 0 0 .24-.666l-3.126-12.831 10.082-8.93a.638.638 0 0 0 .231-.678zm-5 3.23v-.5a.63.63 0 0 0-.625-.633.63.63 0 0 0-.625.633v.633a.632.632 0 0 0 .431.596l-5.587 4.946a.639.639 0 0 0-.194.633l2.85 11.698-10.344-6.473a.618.618 0 0 0-.656 0L9.306 36.606l2.825-11.704a.639.639 0 0 0-.194-.633l-5.824-5.156a.638.638 0 0 0 .137-.38V18.1a.63.63 0 0 0-.625-.633A.63.63 0 0 0 5 18.1l-2.331-2.04 12.281-1.127a.626.626 0 0 0 .519-.392L19.95 3.407l4.488 11.134c.087.218.287.37.518.392l12.281 1.134-2.862 2.533z"/>
            <path fill="#425080" d="M8.75 17.467a.63.63 0 0 0-.625.633v1.267c0 .35.28.633.625.633a.63.63 0 0 0 .625-.633V18.1a.63.63 0 0 0-.625-.633zM11.875 17.467a.63.63 0 0 0-.625.633v1.267c0 .35.28.633.625.633a.63.63 0 0 0 .625-.633V18.1a.63.63 0 0 0-.625-.633zM15.625 19.367V18.1a.63.63 0 0 0-.625-.633.63.63 0 0 0-.625.633v1.267c0 .35.28.633.625.633a.63.63 0 0 0 .625-.633zM18.125 20a.63.63 0 0 0 .625-.633V18.1a.63.63 0 0 0-.625-.633.63.63 0 0 0-.625.633v1.267c0 .35.28.633.625.633zM21.25 20a.63.63 0 0 0 .625-.633V18.1a.63.63 0 0 0-.625-.633.63.63 0 0 0-.625.633v1.267c0 .35.28.633.625.633zM24.375 17.467a.63.63 0 0 0-.625.633v1.267c0 .35.28.633.625.633a.63.63 0 0 0 .625-.633V18.1a.63.63 0 0 0-.625-.633zM27.5 20a.63.63 0 0 0 .625-.633V18.1a.63.63 0 0 0-.625-.633.63.63 0 0 0-.625.633v1.267c0 .35.28.633.625.633zM30.625 20a.63.63 0 0 0 .625-.633V18.1a.63.63 0 0 0-.625-.633.63.63 0 0 0-.625.633v1.267c0 .35.28.633.625.633zM24.375 22.533h-8.75a.63.63 0 0 0-.625.634c0 .35.28.633.625.633h8.75a.63.63 0 0 0 .625-.633.63.63 0 0 0-.625-.634z"/>
        </g>
    </g>
</svg>
